<svg xmlns="http://www.w3.org/2000/svg" viewBox="0 0 500 500" version="1.1" width="500" height="500"><path fill="rgb(0,0,0)" d="M 0 0 L 0.5 0 L 499.5 0 L 500 0.5 L 500 68.5 Q 499.5 69.5 499 68.5 L 499 67.5 L 495.5 64 L 494.5 64 L 491.5 62 L 8.5 62 L 7.5 63 L 4.5 64 L 1 67.5 L 0.5 69 L 0 68.5 L 0 0.5 L 0 0 Z "/><path fill="rgb(0,0,0)" d="M 46.5 107 L 160.5 107 L 164 109.5 Q 163.75 111.25 165 111.5 L 165 114.5 Q 163.5 115.25 164 117 Q 162.25 116.5 161.5 118 L 45.5 118 Q 44.75 116.5 43 117 Q 43.5 115.25 42 114.5 L 42 111.5 L 44.5 108 Q 46.25 108.25 46.5 107 Z "/><path fill="rgb(0,0,0)" d="M 355.5 107 L 367.5 107 Q 367.75 108.25 369.5 108 L 372 110.5 L 373 113.5 Q 371.75 113.75 372 115.5 L 369.5 118 L 353.5 118 L 351 115.5 L 351 110.5 L 353.5 108 Q 355.25 108.25 355.5 107 Z "/><path fill="rgb(0,0,0)" d="M 398.5 107 L 410.5 107 Q 410.75 108.25 412.5 108 L 415 110.5 L 415 115.5 L 412.5 118 L 396.5 118 L 394 115.5 L 394 110.5 L 396.5 108 Q 398.25 108.25 398.5 107 Z "/><path fill="rgb(0,0,0)" d="M 441.5 107 L 453.5 107 L 457 109.5 Q 456.75 111.25 458 111.5 L 458 114.5 Q 456.5 115.25 457 117 Q 455.25 116.5 454.5 118 L 439.5 118 L 437 115.5 L 436 112.5 Q 437.25 112.25 437 110.5 L 439.5 108 Q 441.25 108.25 441.5 107 Z "/><path fill="rgb(0,0,0)" d="M 24 164 L 24.5 164 L 475.5 164 L 476 164 L 476 164.5 L 476 413.5 L 476 414 L 475.5 414 L 24.5 414 L 24 414 L 24 413.5 L 24 164.5 L 24 164 Z M 187 192 Q 186 194 183 193 L 178 196 L 177 196 L 172 201 L 172 202 L 170 204 Q 171 206 169 207 L 169 209 L 168 210 L 168 217 L 167 218 L 167 227 L 168 228 L 168 235 L 169 236 L 169 238 L 172 243 L 172 244 L 177 248 L 180 249 L 181 250 L 183 250 L 184 251 L 187 251 L 188 252 L 227 252 L 227 252 L 227 253 L 227 266 Q 226 266 226 268 L 224 270 Q 220 269 220 271 Q 218 271 218 270 L 191 270 L 190 269 L 171 269 L 170 268 L 169 269 L 169 288 L 169 288 L 170 288 L 174 288 L 175 289 L 189 289 L 190 290 L 208 290 L 209 291 L 232 291 L 233 290 L 237 290 Q 237 289 240 289 L 243 287 L 244 287 L 249 282 L 250 279 L 251 278 L 251 276 L 252 275 L 252 270 L 253 269 L 253 253 L 252 252 L 252 247 L 251 246 L 251 244 Q 250 243 250 242 L 248 240 L 248 239 L 245 235 L 244 235 L 242 233 Q 239 234 239 232 L 237 232 L 236 231 L 229 231 L 228 230 L 198 230 Q 197 229 195 229 L 195 228 L 193 225 L 193 219 Q 195 218 194 216 L 197 213 Q 198 213 199 212 L 245 212 L 245 212 L 245 212 L 245 193 L 245 192 L 245 192 L 187 192 Z M 280 192 L 279 193 L 276 193 L 275 194 L 273 194 Q 272 195 271 195 L 264 202 L 263 205 L 262 206 L 262 208 L 261 209 L 261 214 L 260 215 L 260 230 L 261 231 L 261 236 L 262 237 L 262 239 L 264 242 L 264 243 L 270 248 L 273 249 L 274 250 L 275 250 L 276 251 L 280 251 L 281 252 L 320 252 L 320 252 L 320 253 L 320 265 Q 319 265 319 268 L 317 270 Q 313 269 313 271 Q 310 272 310 270 L 283 270 L 282 269 L 264 269 L 263 268 Q 261 267 261 269 L 261 288 L 261 288 L 262 288 L 267 288 L 268 289 L 281 289 L 282 290 L 301 290 L 302 291 L 325 291 L 326 290 L 330 290 Q 330 289 333 289 L 336 287 L 337 287 L 341 283 L 341 282 L 343 280 Q 343 277 344 277 L 344 275 L 345 274 L 345 248 L 344 247 L 344 245 L 341 240 L 341 239 L 338 235 L 335 234 L 334 233 L 333 233 L 332 232 L 330 232 L 329 231 L 322 231 L 321 230 L 291 230 Q 290 229 289 229 L 286 226 L 286 218 Q 287 217 287 216 L 290 213 Q 291 213 292 212 L 337 212 L 337 212 L 337 212 L 337 193 L 337 192 L 337 192 L 280 192 Z M 357 192 L 357 193 L 357 289 L 357 289 L 358 289 L 383 289 L 383 289 L 383 289 L 383 251 L 383 250 L 384 250 L 416 250 L 416 250 L 416 251 L 416 289 L 416 289 L 417 289 L 442 289 L 442 289 L 442 193 L 442 192 L 442 192 L 417 192 L 416 192 L 416 193 L 416 230 L 416 230 L 416 230 L 384 230 L 383 230 L 383 230 L 383 193 L 383 192 L 383 192 L 358 192 L 357 192 Z M 95 234 L 94 235 L 92 235 Q 91 236 90 236 L 85 241 Q 85 242 84 243 L 84 251 Q 85 251 85 253 L 121 289 L 121 290 L 85 326 Q 85 327 84 328 L 84 337 L 86 339 L 86 340 L 89 342 Q 90 342 91 343 L 93 343 L 94 344 L 99 344 L 100 343 L 102 343 Q 102 342 104 342 L 146 300 L 146 299 L 149 296 Q 149 294 150 294 L 150 292 L 151 291 L 151 288 L 150 287 L 150 285 Q 149 284 149 283 L 103 236 Q 101 236 101 235 L 99 235 L 98 234 L 95 234 Z M 155 320 L 154 321 L 151 321 Q 150 322 149 322 L 145 326 Q 145 327 144 328 L 144 330 L 143 331 L 143 335 L 144 336 L 144 338 Q 145 338 145 340 L 149 343 Q 150 343 151 344 L 154 344 L 155 345 L 270 345 L 271 344 L 273 344 L 276 342 L 277 342 L 278 341 L 279 338 L 280 337 L 280 329 L 278 326 L 278 324 L 277 324 L 275 322 Q 273 322 273 321 L 271 321 L 270 320 L 155 320 Z "/><path fill="rgb(0,0,0)" d="M 0.5 431 L 1 432.5 L 3 434.5 L 3 436 L 4.5 436 L 7.5 438 L 9.5 438 L 10.5 439 L 489.5 439 L 490.5 438 L 492.5 438 Q 492.75 436.75 494.5 437 L 499 432.5 L 499.5 431 L 500 431.5 L 500 499.5 L 500 500 L 499.5 500 L 0.5 500 L 0 499.5 L 0 431.5 L 0.5 431 Z "/><path fill="rgb(72,15,188)" d="M 7.5 63 L 492.5 63 Q 492.75 64.25 494.5 64 L 498 67.5 L 498 68.5 L 500 71.5 L 500 428.5 Q 498.5 429 499 431.5 L 497 433.5 L 497 435 L 495.5 435 L 493.5 437 Q 491.75 436.75 491.5 438 L 8.5 438 L 7.5 437 L 4.5 436 L 3 434.5 L 3 433.5 L 1 431.5 Q 1.5 429 0 428.5 L 0 71.5 L 2 68.5 L 2 67.5 L 5.5 64 Q 7.25 64.25 7.5 63 Z M 46 107 Q 45 108 44 108 L 42 110 Q 43 112 41 113 L 42 116 L 43 117 L 43 118 Q 45 118 46 119 L 162 119 Q 162 118 164 118 L 164 117 L 166 114 Q 166 112 165 112 L 165 110 L 162 107 L 46 107 Z M 355 107 Q 354 108 353 108 L 350 112 L 350 115 Q 351 115 351 117 L 355 119 L 370 119 L 373 116 L 373 111 L 370 107 L 355 107 Z M 397 107 L 393 111 L 393 116 L 397 119 L 412 119 Q 412 118 414 118 L 416 115 L 416 111 L 413 107 L 397 107 Z M 440 107 L 436 111 L 436 116 L 440 119 L 455 119 L 458 116 Q 458 114 459 114 L 458 113 L 458 111 Q 457 110 457 108 Q 455 109 455 107 L 440 107 Z M 23 164 L 23 165 L 23 415 L 23 415 L 24 415 L 477 415 L 477 415 L 477 415 L 477 165 L 477 164 L 477 164 L 24 164 L 23 164 Z "/><path fill="rgb(72,15,188)" d="M 192.5 192 L 243.5 192 L 244 192 L 244 192.5 L 244 210.5 L 244 211 L 243.5 211 L 199.5 211 Q 199 212.5 196.5 212 L 193 215.5 L 193 226.5 L 195.5 230 Q 197.25 229.75 197.5 231 L 231.5 231 L 232.5 232 L 236.5 232 L 237.5 233 L 239.5 233 Q 239.75 234.25 241.5 234 L 243.5 236 L 244.5 236 L 248 239.5 L 248 240.5 L 250 243.5 L 250 245.5 L 251 246.5 L 251 249.5 L 252 250.5 L 252 270.5 L 251 271.5 L 251 275.5 L 250 276.5 L 250 277.5 L 249 278.5 L 248 281.5 L 243.5 286 L 242.5 286 L 240.5 288 Q 238 287.5 237.5 289 L 234.5 289 L 233.5 290 L 201.5 290 L 200.5 289 L 183.5 289 L 182.5 288 L 170.5 288 L 169 286.5 L 169 269.5 L 169 269 L 169.5 269 L 175.5 269 L 176.5 270 L 196.5 270 L 197.5 271 L 223.5 271 L 227 267.5 Q 226.5 265 228 264.5 L 228 252.5 L 226.5 251 L 186.5 251 L 185.5 250 L 182.5 250 L 181.5 249 L 180.5 249 L 179.5 248 L 176.5 247 L 173 243.5 L 173 242.5 L 171 240.5 Q 171.25 238.75 170 238.5 Q 170.5 236 169 235.5 L 169 231.5 L 168 230.5 L 168 213.5 L 169 212.5 L 169 208.5 L 170 207.5 L 170 205.5 L 171 204.5 L 172 201.5 L 176.5 197 L 177.5 197 L 179.5 195 L 181.5 195 L 182.5 194 Q 185 194.5 185.5 193 L 191.5 193 L 192.5 192 Z "/><path fill="rgb(72,15,188)" d="M 285.5 192 L 335.5 192 L 337 193.5 L 337 210.5 L 337 211 L 336.5 211 L 292.5 211 Q 292 212.5 289.5 212 L 286 215.5 Q 286.5 218 285 218.5 L 285 223.5 Q 286.75 224.25 286 227.5 L 288.5 230 Q 290.25 229.75 290.5 231 L 324.5 231 L 325.5 232 L 329.5 232 Q 330 233.5 332.5 233 Q 332.75 234.25 334.5 234 L 336.5 236 L 337.5 236 L 340 238.5 L 340 239.5 L 342 241.5 L 342 243.5 L 344 246.5 L 344 251.5 L 345 252.5 L 345 269.5 L 344 270.5 L 344 274.5 L 343 275.5 L 343 277.5 L 342 278.5 L 341 281.5 L 336.5 286 L 335.5 286 L 330.5 289 Q 327.25 288.25 326.5 290 L 294.5 290 L 293.5 289 L 276.5 289 L 275.5 288 L 263.5 288 L 262 286.5 L 262 269.5 L 262 269 L 262.5 269 L 268.5 269 L 269.5 270 L 288.5 270 L 289.5 271 L 316.5 271 L 320 267.5 L 320 251.5 L 320 251 L 319.5 251 L 278.5 251 L 277.5 250 L 275.5 250 Q 275 248.5 272.5 249 L 270.5 247 L 269.5 247 L 265 242.5 L 265 241.5 L 262 236.5 L 262 232.5 L 261 231.5 L 261 212.5 L 262 211.5 L 262 207.5 L 263 206.5 L 263 205.5 L 264 204.5 L 265 201.5 L 270.5 196 L 271.5 196 L 274.5 194 Q 277.75 194.75 278.5 193 L 284.5 193 L 285.5 192 Z "/><path fill="rgb(72,15,188)" d="M 358.5 192 L 381.5 192 L 382 192 L 382 192.5 L 382 229.5 L 382 230 L 382.5 230 L 416.5 230 L 417 230 L 417 229.5 L 417 192.5 L 417 192 L 417.5 192 L 440.5 192 L 441 192 L 441 192.5 L 441 288.5 L 440.5 289 L 417.5 289 L 417 289 L 417 288.5 L 417 250.5 L 415.5 249 L 382.5 249 L 382 249 L 382 249.5 L 382 288.5 L 382 289 L 381.5 289 L 357.5 289 L 357 289 L 357 288.5 L 357 193.5 L 358.5 192 Z "/><path fill="rgb(72,15,188)" d="M 93.5 235 L 98.5 235 Q 99 236.5 101.5 236 L 149 283.5 Q 148.5 286 150 286.5 L 150 291.5 L 149 292.5 L 149 294.5 L 147 296.5 L 147 297.5 L 103.5 341 L 102.5 341 L 100.5 343 L 91.5 343 Q 91.25 341.75 89.5 342 L 86 338.5 Q 86.25 336.75 85 336.5 L 85 334.5 L 84 333.5 L 84 329.5 L 85 328.5 L 86 325.5 L 122 289.5 L 122 288.5 L 85 251.5 Q 85.5 249 84 248.5 L 84 244.5 Q 85.5 244 85 241.5 L 90.5 236 Q 93 236.5 93.5 235 Z "/><path fill="rgb(72,15,188)" d="M 152.5 321 L 270.5 321 Q 271 322.5 273.5 322 L 278 326.5 Q 277.75 328.25 279 328.5 L 279 331.5 L 280 332.5 L 279 333.5 L 279 336.5 L 277 339.5 L 277 341 L 275.5 341 L 273.5 343 Q 271 342.5 270.5 344 L 152.5 344 L 151.5 343 L 148.5 342 L 146 339.5 L 146 338.5 L 144 335.5 L 144 329.5 L 145 328.5 L 146 325.5 L 148.5 323 L 149.5 323 L 152.5 321 Z "/><path fill="rgb(128,0,128)" d="M 272.5 194 Q 273.5 194.5 272.5 195 Q 271.5 194.5 272.5 194 Z "/><path fill="rgb(128,0,128)" d="M 170.5 203 Q 171.5 203.5 170.5 204 Q 169.5 203.5 170.5 203 Z "/><path fill="rgb(128,0,128)" d="M 167.5 226 Q 168.5 226.5 167.5 227 Q 166.5 226.5 167.5 226 Z "/><path fill="rgb(128,0,128)" d="M 168.5 234 Q 169.5 234.5 168.5 235 Q 167.5 234.5 168.5 234 Z "/><path fill="rgb(128,0,128)" d="M 337.5 235 Q 338.5 235.5 337.5 236 Q 336.5 235.5 337.5 235 Z "/><path fill="rgb(128,0,128)" d="M 340.5 238 Q 341.5 238.5 340.5 239 Q 339.5 238.5 340.5 238 Z "/><path fill="rgb(128,0,128)" d="M 251.5 246 Q 252.5 246.5 251.5 247 Q 250.5 246.5 251.5 246 Z "/><path fill="rgb(128,0,128)" d="M 176.5 247 Q 177.5 247.5 176.5 248 Q 175.5 247.5 176.5 247 Z "/><path fill="rgb(128,0,128)" d="M 275.5 250 Q 276.5 250.5 275.5 251 Q 274.5 250.5 275.5 250 Z "/><path fill="rgb(128,0,128)" d="M 226.5 266 Q 227.5 266.5 226.5 267 Q 225.5 266.5 226.5 266 Z "/><path fill="rgb(128,0,128)" d="M 262.5 268 Q 263.5 268.5 262.5 269 Q 261.5 268.5 262.5 268 Z "/><path fill="rgb(128,0,128)" d="M 309.5 270 Q 310.5 270.5 309.5 271 Q 308.5 270.5 309.5 270 Z "/><path fill="rgb(128,0,128)" d="M 313.5 270 Q 314.5 270.5 313.5 271 Q 312.5 270.5 313.5 270 Z "/><path fill="rgb(128,0,128)" d="M 301.5 290 Q 302.5 290.5 301.5 291 Q 300.5 290.5 301.5 290 Z "/><path fill="rgb(128,0,128)" d="M 279.5 328 Q 280.5 328.5 279.5 329 Q 278.5 328.5 279.5 328 Z "/><path fill="rgb(128,0,128)" d="M 277.5 340 Q 278.5 340.5 277.5 341 Q 276.5 340.5 277.5 340 Z "/><path fill="rgb(47,20,212)" d="M 498.5 67 Q 499.5 67.5 498.5 68 Q 497.5 67.5 498.5 67 Z "/><path fill="rgb(47,20,212)" d="M 499.5 69 Q 500.5 69.5 499.5 70 Q 498.5 69.5 499.5 69 Z "/><path fill="rgb(47,20,212)" d="M 368.5 107 Q 369.5 107.5 368.5 108 Q 367.5 107.5 368.5 107 Z "/><path fill="rgb(47,20,212)" d="M 440.5 107 Q 441.5 107.5 440.5 108 Q 439.5 107.5 440.5 107 Z "/><path fill="rgb(47,20,212)" d="M 370.5 108 L 372 109.5 L 371.5 110 L 370 108.5 L 370.5 108 Z "/><path fill="rgb(47,20,212)" d="M 438.5 108 L 439 108.5 L 437.5 110 L 437 109.5 L 438.5 108 Z "/><path fill="rgb(47,20,212)" d="M 164.5 110 Q 165.5 110.5 164.5 111 Q 163.5 110.5 164.5 110 Z "/><path fill="rgb(47,20,212)" d="M 436.5 111 Q 437.5 111.5 436.5 112 Q 435.5 111.5 436.5 111 Z "/><path fill="rgb(47,20,212)" d="M 372.5 114 Q 373.5 114.5 372.5 115 Q 371.5 114.5 372.5 114 Z "/><path fill="rgb(47,20,212)" d="M 436.5 114 Q 437.5 114.5 436.5 115 Q 435.5 114.5 436.5 114 Z "/><path fill="rgb(47,20,212)" d="M 44.5 117 Q 45.5 117.5 44.5 118 Q 43.5 117.5 44.5 117 Z "/><path fill="rgb(47,20,212)" d="M 162.5 117 Q 163.5 117.5 162.5 118 Q 161.5 117.5 162.5 117 Z "/><path fill="rgb(47,20,212)" d="M 186.5 192 Q 187.5 192.5 186.5 193 Q 185.5 192.5 186.5 192 Z "/><path fill="rgb(47,20,212)" d="M 244.5 192 L 245 192.5 L 245 211.5 Q 244.5 212.5 244 211.5 L 244 192.5 L 244.5 192 Z "/><path fill="rgb(47,20,212)" d="M 279.5 192 Q 280.5 192.5 279.5 193 Q 278.5 192.5 279.5 192 Z "/><path fill="rgb(47,20,212)" d="M 182.5 193 Q 183.5 193.5 182.5 194 Q 181.5 193.5 182.5 193 Z "/><path fill="rgb(47,20,212)" d="M 275.5 193 Q 276.5 193.5 275.5 194 Q 274.5 193.5 275.5 193 Z "/><path fill="rgb(47,20,212)" d="M 270.5 195 Q 271.5 195.5 270.5 196 Q 269.5 195.5 270.5 195 Z "/><path fill="rgb(47,20,212)" d="M 176.5 196 Q 177.5 196.5 176.5 197 Q 175.5 196.5 176.5 196 Z "/><path fill="rgb(47,20,212)" d="M 264.5 201 Q 265.5 201.5 264.5 202 Q 263.5 201.5 264.5 201 Z "/><path fill="rgb(47,20,212)" d="M 262.5 205 Q 263.5 205.5 262.5 206 Q 261.5 205.5 262.5 205 Z "/><path fill="rgb(47,20,212)" d="M 261.5 208 Q 262.5 208.5 261.5 209 Q 260.5 208.5 261.5 208 Z "/><path fill="rgb(47,20,212)" d="M 168.5 209 Q 169.5 209.5 168.5 210 Q 167.5 209.5 168.5 209 Z "/><path fill="rgb(47,20,212)" d="M 290.5 212 Q 291.5 212.5 290.5 213 Q 289.5 212.5 290.5 212 Z "/><path fill="rgb(47,20,212)" d="M 288.5 213 L 289 213.5 L 287.5 215 L 287 214.5 L 288.5 213 Z "/><path fill="rgb(47,20,212)" d="M 260.5 214 Q 261.5 214.5 260.5 215 Q 259.5 214.5 260.5 214 Z "/><path fill="rgb(47,20,212)" d="M 286.5 216 Q 287.5 216.5 286.5 217 Q 285.5 216.5 286.5 216 Z "/><path fill="rgb(47,20,212)" d="M 167.5 217 L 168 218.5 Q 167.5 219.5 167 218.5 L 167.5 217 Z "/><path fill="rgb(47,20,212)" d="M 193.5 217 Q 194.5 217.5 193.5 218 Q 192.5 217.5 193.5 217 Z "/><path fill="rgb(47,20,212)" d="M 167.5 220 Q 168.75 220.75 168 223.5 Q 167.5 224.5 167 223.5 Q 166.25 220.75 167.5 220 Z "/><path fill="rgb(47,20,212)" d="M 167.5 225 Q 168.5 225.5 167.5 226 Q 166.5 225.5 167.5 225 Z "/><path fill="rgb(47,20,212)" d="M 194.5 227 Q 195.5 227.5 194.5 228 Q 193.5 227.5 194.5 227 Z "/><path fill="rgb(47,20,212)" d="M 196.5 229 Q 197.5 229.5 196.5 230 Q 195.5 229.5 196.5 229 Z "/><path fill="rgb(47,20,212)" d="M 260.5 229 Q 261.5 229.5 260.5 230 Q 259.5 229.5 260.5 229 Z "/><path fill="rgb(47,20,212)" d="M 289.5 229 Q 290.5 229.5 289.5 230 Q 288.5 229.5 289.5 229 Z "/><path fill="rgb(47,20,212)" d="M 225.5 230 Q 227.5 229.5 228 230.5 Q 227.5 231.5 225.5 231 Q 224.5 230.5 225.5 230 Z "/><path fill="rgb(47,20,212)" d="M 318.5 230 Q 320.5 229.5 321 230.5 Q 320.5 231.5 318.5 231 Q 317.5 230.5 318.5 230 Z "/><path fill="rgb(47,20,212)" d="M 328.5 231 Q 329.5 231.5 328.5 232 Q 327.5 231.5 328.5 231 Z "/><path fill="rgb(47,20,212)" d="M 241.5 233 Q 242.5 233.5 241.5 234 Q 240.5 233.5 241.5 233 Z "/><path fill="rgb(47,20,212)" d="M 94.5 234 Q 95.5 234.5 94.5 235 Q 93.5 234.5 94.5 234 Z "/><path fill="rgb(47,20,212)" d="M 97.5 234 Q 98.5 234.5 97.5 235 Q 96.5 234.5 97.5 234 Z "/><path fill="rgb(47,20,212)" d="M 244.5 235 Q 245.5 235.5 244.5 236 Q 243.5 235.5 244.5 235 Z "/><path fill="rgb(47,20,212)" d="M 261.5 235 Q 262.5 235.5 261.5 236 Q 260.5 235.5 261.5 235 Z "/><path fill="rgb(47,20,212)" d="M 338.5 236 L 340 237.5 L 339.5 238 L 338 236.5 L 338.5 236 Z "/><path fill="rgb(47,20,212)" d="M 262.5 238 Q 263.5 238.5 262.5 239 Q 261.5 238.5 262.5 238 Z "/><path fill="rgb(47,20,212)" d="M 263.5 240 Q 264.5 240.5 263.5 241 Q 262.5 240.5 263.5 240 Z "/><path fill="rgb(47,20,212)" d="M 249.5 241 Q 250.5 241.5 249.5 242 Q 248.5 241.5 249.5 241 Z "/><path fill="rgb(47,20,212)" d="M 264.5 242 Q 265.5 242.5 264.5 243 Q 263.5 242.5 264.5 242 Z "/><path fill="rgb(47,20,212)" d="M 172.5 243 Q 173.5 243.5 172.5 244 Q 171.5 243.5 172.5 243 Z "/><path fill="rgb(47,20,212)" d="M 250.5 243 Q 251.5 243.5 250.5 244 Q 249.5 243.5 250.5 243 Z "/><path fill="rgb(47,20,212)" d="M 269.5 247 Q 270.5 247.5 269.5 248 Q 268.5 247.5 269.5 247 Z "/><path fill="rgb(47,20,212)" d="M 344.5 247 Q 345.5 247.5 344.5 248 Q 343.5 247.5 344.5 247 Z "/><path fill="rgb(47,20,212)" d="M 187.5 251 Q 188.5 251.5 187.5 252 Q 186.5 251.5 187.5 251 Z "/><path fill="rgb(47,20,212)" d="M 280.5 251 Q 281.5 251.5 280.5 252 Q 279.5 251.5 280.5 251 Z "/><path fill="rgb(47,20,212)" d="M 252.5 252 Q 253.5 252.5 252.5 253 Q 251.5 252.5 252.5 252 Z "/><path fill="rgb(47,20,212)" d="M 319.5 265 Q 320.5 265.5 319.5 266 Q 318.5 265.5 319.5 265 Z "/><path fill="rgb(47,20,212)" d="M 169.5 268 Q 170.5 268.5 169.5 269 Q 168.5 268.5 169.5 268 Z "/><path fill="rgb(47,20,212)" d="M 252.5 268 Q 253.5 268.5 252.5 269 Q 251.5 268.5 252.5 268 Z "/><path fill="rgb(47,20,212)" d="M 261.5 268 Q 262.5 268.5 261.5 269 Q 260.5 268.5 261.5 268 Z "/><path fill="rgb(47,20,212)" d="M 188.5 269 L 190 269.5 L 188.5 270 Q 187.5 269.5 188.5 269 Z "/><path fill="rgb(47,20,212)" d="M 281.5 269 Q 282.5 269.5 281.5 270 Q 280.5 269.5 281.5 269 Z "/><path fill="rgb(47,20,212)" d="M 214.5 270 Q 217.25 269.25 218 270.5 Q 217.25 271.75 214.5 271 Q 213.5 270.5 214.5 270 Z "/><path fill="rgb(47,20,212)" d="M 220.5 270 L 222 270.5 L 220.5 271 Q 219.5 270.5 220.5 270 Z "/><path fill="rgb(47,20,212)" d="M 306.5 270 Q 308.5 269.5 309 270.5 Q 308.5 271.5 306.5 271 Q 305.5 270.5 306.5 270 Z "/><path fill="rgb(47,20,212)" d="M 344.5 273 Q 345.5 273.5 344.5 274 Q 343.5 273.5 344.5 273 Z "/><path fill="rgb(47,20,212)" d="M 251.5 274 Q 252.5 274.5 251.5 275 Q 250.5 274.5 251.5 274 Z "/><path fill="rgb(47,20,212)" d="M 250.5 277 Q 251.5 277.5 250.5 278 Q 249.5 277.5 250.5 277 Z "/><path fill="rgb(47,20,212)" d="M 342.5 279 Q 343.5 279.5 342.5 280 Q 341.5 279.5 342.5 279 Z "/><path fill="rgb(47,20,212)" d="M 248.5 281 Q 249.5 281.5 248.5 282 Q 247.5 281.5 248.5 281 Z "/><path fill="rgb(47,20,212)" d="M 243.5 286 Q 244.5 286.5 243.5 287 Q 242.5 286.5 243.5 286 Z "/><path fill="rgb(47,20,212)" d="M 336.5 286 Q 337.5 286.5 336.5 287 Q 335.5 286.5 336.5 286 Z "/><path fill="rgb(47,20,212)" d="M 150.5 287 Q 151.5 287.5 150.5 288 Q 149.5 287.5 150.5 287 Z "/><path fill="rgb(47,20,212)" d="M 261.5 287 Q 262.5 287.5 261.5 288 Q 260.5 287.5 261.5 287 Z "/><path fill="rgb(47,20,212)" d="M 174.5 288 Q 175.5 288.5 174.5 289 Q 173.5 288.5 174.5 288 Z "/><path fill="rgb(47,20,212)" d="M 267.5 288 Q 268.5 288.5 267.5 289 Q 266.5 288.5 267.5 288 Z "/><path fill="rgb(47,20,212)" d="M 332.5 288 Q 333.5 288.5 332.5 289 Q 331.5 288.5 332.5 288 Z "/><path fill="rgb(47,20,212)" d="M 189.5 289 L 191 289.5 L 189.5 290 Q 188.5 289.5 189.5 289 Z "/><path fill="rgb(47,20,212)" d="M 281.5 289 L 283 289.5 L 281.5 290 Q 280.5 289.5 281.5 289 Z "/><path fill="rgb(47,20,212)" d="M 329.5 289 Q 330.5 289.5 329.5 290 Q 328.5 289.5 329.5 289 Z "/><path fill="rgb(47,20,212)" d="M 208.5 290 L 210 290.5 L 208.5 291 Q 207.5 290.5 208.5 290 Z "/><path fill="rgb(47,20,212)" d="M 231.5 290 Q 232.5 290.5 231.5 291 Q 230.5 290.5 231.5 290 Z "/><path fill="rgb(47,20,212)" d="M 302.5 290 L 304 290.5 L 302.5 291 Q 301.5 290.5 302.5 290 Z "/><path fill="rgb(47,20,212)" d="M 324.5 290 Q 325.5 290.5 324.5 291 Q 323.5 290.5 324.5 290 Z "/><path fill="rgb(47,20,212)" d="M 145.5 299 L 146 299.5 L 121.5 324 L 121 323.5 L 145.5 299 Z "/><path fill="rgb(47,20,212)" d="M 269.5 320 Q 270.5 320.5 269.5 321 Q 268.5 320.5 269.5 320 Z "/><path fill="rgb(47,20,212)" d="M 150.5 321 Q 151.5 321.5 150.5 322 Q 149.5 321.5 150.5 321 Z "/><path fill="rgb(47,20,212)" d="M 148.5 322 Q 149.5 322.5 148.5 323 Q 147.5 322.5 148.5 322 Z "/><path fill="rgb(47,20,212)" d="M 277.5 324 Q 278.5 324.5 277.5 325 Q 276.5 324.5 277.5 324 Z "/><path fill="rgb(47,20,212)" d="M 145.5 325 Q 146.5 325.5 145.5 326 Q 144.5 325.5 145.5 325 Z "/><path fill="rgb(47,20,212)" d="M 278.5 326 Q 279.5 326.5 278.5 327 Q 277.5 326.5 278.5 326 Z "/><path fill="rgb(47,20,212)" d="M 144.5 327 Q 145.5 327.5 144.5 328 Q 143.5 327.5 144.5 327 Z "/><path fill="rgb(47,20,212)" d="M 115.5 329 L 116 329.5 L 114.5 331 L 114 330.5 L 115.5 329 Z "/><path fill="rgb(47,20,212)" d="M 143.5 330 L 144 331.5 Q 143.5 332.5 143 331.5 L 143.5 330 Z "/><path fill="rgb(47,20,212)" d="M 112.5 332 L 113 332.5 L 111.5 334 L 111 333.5 L 112.5 332 Z "/><path fill="rgb(47,20,212)" d="M 143.5 333 L 144 334.5 Q 143.5 335.5 143 334.5 L 143.5 333 Z "/><path fill="rgb(47,20,212)" d="M 84.5 336 Q 85.5 336.5 84.5 337 Q 83.5 336.5 84.5 336 Z "/><path fill="rgb(47,20,212)" d="M 279.5 336 Q 280.5 336.5 279.5 337 Q 278.5 336.5 279.5 336 Z "/><path fill="rgb(47,20,212)" d="M 103.5 341 Q 104.5 341.5 103.5 342 Q 102.5 341.5 103.5 341 Z "/><path fill="rgb(47,20,212)" d="M 276.5 341 Q 277.5 341.5 276.5 342 Q 275.5 341.5 276.5 341 Z "/><path fill="rgb(47,20,212)" d="M 148.5 342 Q 149.5 342.5 148.5 343 Q 147.5 342.5 148.5 342 Z "/><path fill="rgb(47,20,212)" d="M 150.5 343 Q 151.5 343.5 150.5 344 Q 149.5 343.5 150.5 343 Z "/><path fill="rgb(47,20,212)" d="M 269.5 344 Q 270.5 344.5 269.5 345 Q 268.5 344.5 269.5 344 Z "/><path fill="rgb(47,20,212)" d="M 3.5 435 Q 4.5 435.5 3.5 436 Q 2.5 435.5 3.5 435 Z "/><path fill="rgb(47,20,212)" d="M 10.5 438 L 489.5 438 L 490 438.5 L 489.5 439 L 10.5 439 Q 9.5 438.5 10.5 438 Z "/><path fill="rgb(72,15,188)" d="M 8.5 62 L 491.5 62 L 492 62.5 L 491.5 63 L 8.5 63 Q 7.5 62.5 8.5 62 Z "/><path fill="rgb(72,15,188)" d="M 6.5 63 Q 7.5 63.5 6.5 64 Q 5.5 63.5 6.5 63 Z "/><path fill="rgb(72,15,188)" d="M 493.5 63 Q 494.5 63.5 493.5 64 Q 492.5 63.5 493.5 63 Z "/><path fill="rgb(72,15,188)" d="M 4.5 64 L 5 64.5 L 2 67.5 L 2 68.5 L 0.5 71 L 0 69.5 Q 1.25 69.25 1 67.5 L 4.5 64 Z "/><path fill="rgb(72,15,188)" d="M 495.5 64 L 498 66.5 L 497.5 67 L 495 64.5 L 495.5 64 Z "/><path fill="rgb(72,15,188)" d="M 498.5 68 Q 499.5 68.5 498.5 69 Q 497.5 68.5 498.5 68 Z "/><path fill="rgb(72,15,188)" d="M 499.5 70 Q 500.5 70.5 499.5 71 Q 498.5 70.5 499.5 70 Z "/><path fill="rgb(72,15,188)" d="M 45.5 107 Q 46.5 107.5 45.5 108 Q 44.5 107.5 45.5 107 Z "/><path fill="rgb(72,15,188)" d="M 161.5 107 Q 162.5 107.5 161.5 108 Q 160.5 107.5 161.5 107 Z "/><path fill="rgb(72,15,188)" d="M 354.5 107 Q 355.5 107.5 354.5 108 Q 353.5 107.5 354.5 107 Z "/><path fill="rgb(72,15,188)" d="M 369.5 107 Q 370.5 107.5 369.5 108 Q 368.5 107.5 369.5 107 Z "/><path fill="rgb(72,15,188)" d="M 396.5 107 L 398 107.5 L 396.5 108 L 394 110.5 L 394 115.5 L 396.5 118 L 411.5 118 L 412 118.5 L 411.5 119 L 396.5 119 L 393 115.5 L 393 110.5 L 396.5 107 Z "/><path fill="rgb(72,15,188)" d="M 411.5 107 L 412.5 107 L 416 110.5 L 416 114.5 L 415.5 115 L 415 114.5 L 415 110.5 L 412.5 108 Q 410.12 107.88 411.5 107 Z "/><path fill="rgb(72,15,188)" d="M 439.5 107 Q 440.5 107.5 439.5 108 Q 438.5 107.5 439.5 107 Z "/><path fill="rgb(72,15,188)" d="M 454.5 107 Q 455.5 107.5 454.5 108 Q 453.5 107.5 454.5 107 Z "/><path fill="rgb(72,15,188)" d="M 43.5 108 Q 44.75 108.75 43 109.5 L 42.5 111 L 42 109.5 L 43.5 108 Z "/><path fill="rgb(72,15,188)" d="M 163.5 108 L 165 109.5 L 164.5 110 L 163 108.5 L 163.5 108 Z "/><path fill="rgb(72,15,188)" d="M 352.5 108 L 353 108.5 L 351.5 110 L 351 109.5 L 352.5 108 Z "/><path fill="rgb(72,15,188)" d="M 456.5 108 Q 457.5 108.5 456.5 109 Q 455.5 108.5 456.5 108 Z "/><path fill="rgb(72,15,188)" d="M 372.5 110 L 373 111.5 Q 372.5 112.5 372 111.5 L 372.5 110 Z "/><path fill="rgb(72,15,188)" d="M 436.5 110 Q 437.5 110.5 436.5 111 Q 435.5 110.5 436.5 110 Z "/><path fill="rgb(72,15,188)" d="M 457.5 110 Q 458.5 110.5 457.5 111 Q 456.5 110.5 457.5 110 Z "/><path fill="rgb(72,15,188)" d="M 350.5 111 Q 351.75 111.75 351 114.5 Q 350.5 115.5 350 114.5 Q 349.25 111.75 350.5 111 Z "/><path fill="rgb(72,15,188)" d="M 41.5 112 L 42 113.5 Q 41.5 114.5 41 113.5 L 41.5 112 Z "/><path fill="rgb(72,15,188)" d="M 165.5 112 L 166 113.5 Q 165.5 114.5 165 113.5 L 165.5 112 Z "/><path fill="rgb(72,15,188)" d="M 458.5 113 Q 459.5 113.5 458.5 114 Q 457.5 113.5 458.5 113 Z "/><path fill="rgb(72,15,188)" d="M 42.5 115 Q 43.5 115.5 42.5 116 Q 41.5 115.5 42.5 115 Z "/><path fill="rgb(72,15,188)" d="M 164.5 115 Q 165.5 115.5 164.5 116 Q 163.5 115.5 164.5 115 Z "/><path fill="rgb(72,15,188)" d="M 372.5 115 L 373 115.5 L 369.5 119 L 354.5 119 L 354 118.5 L 354.5 118 L 369.5 118 L 372.5 115 Z "/><path fill="rgb(72,15,188)" d="M 436.5 115 L 439.5 118 L 454.5 118 Q 455.25 116.25 456 117.5 L 454.5 119 L 439.5 119 L 436 115.5 L 436.5 115 Z "/><path fill="rgb(72,15,188)" d="M 457.5 115 Q 458.5 115.5 457.5 116 Q 456.5 115.5 457.5 115 Z "/><path fill="rgb(72,15,188)" d="M 351.5 116 L 353 117.5 L 352.5 118 L 351 116.5 L 351.5 116 Z "/><path fill="rgb(72,15,188)" d="M 414.5 116 L 415 116.5 L 413.5 118 L 413 117.5 L 414.5 116 Z "/><path fill="rgb(72,15,188)" d="M 43.5 117 Q 44.5 117.5 43.5 118 Q 42.5 117.5 43.5 117 Z "/><path fill="rgb(72,15,188)" d="M 163.5 117 Q 164.5 117.5 163.5 118 Q 162.5 117.5 163.5 117 Z "/><path fill="rgb(72,15,188)" d="M 45.5 118 L 161.5 118 L 162 118.5 L 161.5 119 L 45.5 119 Q 44.5 118.5 45.5 118 Z "/><path fill="rgb(72,15,188)" d="M 23.5 164 L 24 164.5 L 24 413.5 L 24 414 L 24.5 414 L 475.5 414 L 476 414 L 476 413.5 L 476 164.5 Q 476.5 163.5 477 164.5 L 477 414.5 L 477 415 L 476.5 415 L 23.5 415 L 23 415 L 23 414.5 L 23 164.5 L 23.5 164 Z "/><path fill="rgb(72,15,188)" d="M 187.5 192 L 191.5 192 L 192 192.5 L 191.5 193 L 187.5 193 Q 186.5 192.5 187.5 192 Z "/><path fill="rgb(72,15,188)" d="M 280.5 192 L 284.5 192 L 285 192.5 L 284.5 193 L 280.5 193 Q 279.5 192.5 280.5 192 Z "/><path fill="rgb(72,15,188)" d="M 336.5 192 Q 337.5 192.5 336.5 193 Q 335.5 192.5 336.5 192 Z "/><path fill="rgb(72,15,188)" d="M 357.5 192 Q 358.5 192.5 357.5 193 Q 356.5 192.5 357.5 192 Z "/><path fill="rgb(72,15,188)" d="M 382.5 192 L 383 192.5 L 383 229.5 Q 382.5 230.5 382 229.5 L 382 192.5 L 382.5 192 Z "/><path fill="rgb(72,15,188)" d="M 416.5 192 L 417 192.5 L 417 229.5 Q 416.5 230.5 416 229.5 L 416 192.5 L 416.5 192 Z "/><path fill="rgb(72,15,188)" d="M 441.5 192 L 442 192.5 L 442 288.5 Q 441.5 289.5 441 288.5 L 441 192.5 L 441.5 192 Z "/><path fill="rgb(72,15,188)" d="M 183.5 193 L 185 193.5 L 183.5 194 Q 182.5 193.5 183.5 193 Z "/><path fill="rgb(72,15,188)" d="M 276.5 193 L 278 193.5 L 276.5 194 Q 275.5 193.5 276.5 193 Z "/><path fill="rgb(72,15,188)" d="M 180.5 194 L 182 194.5 L 180.5 195 Q 179.5 194.5 180.5 194 Z "/><path fill="rgb(72,15,188)" d="M 273.5 194 Q 274.5 194.5 273.5 195 Q 272.5 194.5 273.5 194 Z "/><path fill="rgb(72,15,188)" d="M 178.5 195 L 179 195.5 L 177.5 197 L 177 196.5 L 178.5 195 Z "/><path fill="rgb(72,15,188)" d="M 271.5 195 Q 272.5 195.5 271.5 196 Q 270.5 195.5 271.5 195 Z "/><path fill="rgb(72,15,188)" d="M 269.5 196 L 270 196.5 L 265.5 201 L 265 200.5 L 269.5 196 Z "/><path fill="rgb(72,15,188)" d="M 175.5 197 L 176 197.5 L 172.5 201 L 172 200.5 L 175.5 197 Z "/><path fill="rgb(72,15,188)" d="M 171.5 202 Q 172.5 202.5 171.5 203 Q 170.5 202.5 171.5 202 Z "/><path fill="rgb(72,15,188)" d="M 264.5 202 Q 265.75 202.75 264 203.5 L 263.5 205 L 263 203.5 L 264.5 202 Z "/><path fill="rgb(72,15,188)" d="M 170.5 204 Q 171.5 204.5 170.5 205 Q 169.5 204.5 170.5 204 Z "/><path fill="rgb(72,15,188)" d="M 169.5 206 L 170 207.5 Q 169.5 208.5 169 207.5 L 169.5 206 Z "/><path fill="rgb(72,15,188)" d="M 262.5 206 Q 263.5 206.5 262.5 207 Q 261.5 206.5 262.5 206 Z "/><path fill="rgb(72,15,188)" d="M 261.5 209 Q 262.5 209.5 262 211.5 Q 261.5 212.5 261 211.5 Q 260.5 209.5 261.5 209 Z "/><path fill="rgb(72,15,188)" d="M 168.5 210 Q 169.5 210.5 169 212.5 Q 168.5 213.5 168 212.5 Q 167.5 210.5 168.5 210 Z "/><path fill="rgb(72,15,188)" d="M 199.5 211 L 243.5 211 L 244 211.5 L 243.5 212 L 199.5 212 Q 198.5 211.5 199.5 211 Z "/><path fill="rgb(72,15,188)" d="M 292.5 211 L 336.5 211 L 337 211.5 L 336.5 212 L 292.5 212 Q 291.5 211.5 292.5 211 Z "/><path fill="rgb(72,15,188)" d="M 196.5 212 L 198 212.5 L 196.5 213 L 194 215.5 L 193.5 217 L 193 215.5 L 196.5 212 Z "/><path fill="rgb(72,15,188)" d="M 289.5 212 Q 290.5 212.5 289.5 213 Q 288.5 212.5 289.5 212 Z "/><path fill="rgb(72,15,188)" d="M 260.5 215 L 261 215.5 L 261 228.5 Q 260.5 229.5 260 228.5 L 260 215.5 L 260.5 215 Z "/><path fill="rgb(72,15,188)" d="M 286.5 215 Q 287.5 215.5 286.5 216 Q 285.5 215.5 286.5 215 Z "/><path fill="rgb(72,15,188)" d="M 285.5 218 L 286 218.5 L 286 223.5 Q 285.5 224.5 285 223.5 L 285 218.5 L 285.5 218 Z "/><path fill="rgb(72,15,188)" d="M 167.5 219 Q 168.5 219.5 167.5 220 Q 166.5 219.5 167.5 219 Z "/><path fill="rgb(72,15,188)" d="M 167.5 224 Q 168.5 224.5 167.5 225 Q 166.5 224.5 167.5 224 Z "/><path fill="rgb(72,15,188)" d="M 193.5 225 L 194 226.5 Q 193.5 227.5 193 226.5 L 193.5 225 Z "/><path fill="rgb(72,15,188)" d="M 286.5 226 L 287 227.5 L 289 229.5 L 288.5 230 L 286 227.5 L 286.5 226 Z "/><path fill="rgb(72,15,188)" d="M 194.5 228 L 196 229.5 L 195.5 230 L 194 228.5 L 194.5 228 Z "/><path fill="rgb(72,15,188)" d="M 197.5 230 L 224.5 230 L 225 230.5 L 224.5 231 L 197.5 231 Q 196.5 230.5 197.5 230 Z "/><path fill="rgb(72,15,188)" d="M 290.5 230 L 317.5 230 L 318 230.5 L 317.5 231 L 290.5 231 Q 289.5 230.5 290.5 230 Z "/><path fill="rgb(72,15,188)" d="M 168.5 231 Q 169.5 231.5 169 233.5 Q 168.5 234.5 168 233.5 Q 167.5 231.5 168.5 231 Z "/><path fill="rgb(72,15,188)" d="M 232.5 231 Q 235.25 230.25 236 231.5 Q 235.25 232.75 232.5 232 Q 231.5 231.5 232.5 231 Z "/><path fill="rgb(72,15,188)" d="M 325.5 231 Q 327.5 230.5 328 231.5 Q 327.5 232.5 325.5 232 Q 324.5 231.5 325.5 231 Z "/><path fill="rgb(72,15,188)" d="M 237.5 232 L 239 232.5 L 237.5 233 Q 236.5 232.5 237.5 232 Z "/><path fill="rgb(72,15,188)" d="M 261.5 232 Q 262.5 232.5 262 234.5 Q 261.5 235.5 261 234.5 Q 260.5 232.5 261.5 232 Z "/><path fill="rgb(72,15,188)" d="M 330.5 232 L 332 232.5 L 330.5 233 Q 329.5 232.5 330.5 232 Z "/><path fill="rgb(72,15,188)" d="M 240.5 233 Q 241.5 233.5 240.5 234 Q 239.5 233.5 240.5 233 Z "/><path fill="rgb(72,15,188)" d="M 333.5 233 Q 334.5 233.5 333.5 234 Q 332.5 233.5 333.5 233 Z "/><path fill="rgb(72,15,188)" d="M 95.5 234 L 97 234.5 L 95.5 235 Q 94.5 234.5 95.5 234 Z "/><path fill="rgb(72,15,188)" d="M 242.5 234 L 244 235.5 L 243.5 236 L 242 234.5 L 242.5 234 Z "/><path fill="rgb(72,15,188)" d="M 335.5 234 L 337 235.5 L 336.5 236 L 335 234.5 L 335.5 234 Z "/><path fill="rgb(72,15,188)" d="M 91.5 235 L 93 235.5 L 91.5 236 Q 90.5 235.5 91.5 235 Z "/><path fill="rgb(72,15,188)" d="M 99.5 235 L 101 235.5 L 99.5 236 Q 98.5 235.5 99.5 235 Z "/><path fill="rgb(72,15,188)" d="M 89.5 236 L 90 236.5 L 85.5 241 L 85 240.5 L 89.5 236 Z "/><path fill="rgb(72,15,188)" d="M 102.5 236 L 149 282.5 L 148.5 283 L 102 236.5 L 102.5 236 Z "/><path fill="rgb(72,15,188)" d="M 169.5 236 L 170 237.5 Q 169.5 238.5 169 237.5 L 169.5 236 Z "/><path fill="rgb(72,15,188)" d="M 245.5 236 L 248 238.5 L 247.5 239 L 245 236.5 L 245.5 236 Z "/><path fill="rgb(72,15,188)" d="M 262.5 237 Q 263.5 237.5 262.5 238 Q 261.5 237.5 262.5 237 Z "/><path fill="rgb(72,15,188)" d="M 170.5 239 Q 171.5 239.5 170.5 240 Q 169.5 239.5 170.5 239 Z "/><path fill="rgb(72,15,188)" d="M 263.5 239 Q 264.5 239.5 263.5 240 Q 262.5 239.5 263.5 239 Z "/><path fill="rgb(72,15,188)" d="M 340.5 239 L 342 240.5 L 341.5 241 L 340 239.5 L 340.5 239 Z "/><path fill="rgb(72,15,188)" d="M 248.5 240 Q 249.5 240.5 248.5 241 Q 247.5 240.5 248.5 240 Z "/><path fill="rgb(72,15,188)" d="M 171.5 241 L 173 242.5 L 172.5 243 L 171 241.5 L 171.5 241 Z "/><path fill="rgb(72,15,188)" d="M 264.5 241 Q 265.5 241.5 264.5 242 Q 263.5 241.5 264.5 241 Z "/><path fill="rgb(72,15,188)" d="M 84.5 242 L 85 243.5 Q 84.5 244.5 84 243.5 L 84.5 242 Z "/><path fill="rgb(72,15,188)" d="M 249.5 242 Q 250.5 242.5 249.5 243 Q 248.5 242.5 249.5 242 Z "/><path fill="rgb(72,15,188)" d="M 342.5 242 L 344 244.5 L 344 245.5 Q 343.5 246.5 343 245.5 Q 343.25 243.75 342 243.5 L 342.5 242 Z "/><path fill="rgb(72,15,188)" d="M 265.5 243 L 269 246.5 L 268.5 247 L 265 243.5 L 265.5 243 Z "/><path fill="rgb(72,15,188)" d="M 173.5 244 L 176 246.5 L 175.5 247 L 173 244.5 L 173.5 244 Z "/><path fill="rgb(72,15,188)" d="M 250.5 244 L 251 245.5 Q 250.5 246.5 250 245.5 L 250.5 244 Z "/><path fill="rgb(72,15,188)" d="M 177.5 247 L 178.5 248 L 179.5 248 L 182 249.5 L 180.5 250 L 177 247.5 L 177.5 247 Z "/><path fill="rgb(72,15,188)" d="M 251.5 247 Q 252.5 247.5 252 249.5 Q 251.5 250.5 251 249.5 Q 250.5 247.5 251.5 247 Z "/><path fill="rgb(72,15,188)" d="M 270.5 247 L 272 248.5 L 271.5 249 L 270 247.5 L 270.5 247 Z "/><path fill="rgb(72,15,188)" d="M 344.5 248 Q 345.75 248.75 345 251.5 Q 344.5 252.5 344 251.5 Q 343.25 248.75 344.5 248 Z "/><path fill="rgb(72,15,188)" d="M 84.5 249 L 85 250.5 Q 84.5 251.5 84 250.5 L 84.5 249 Z "/><path fill="rgb(72,15,188)" d="M 273.5 249 L 275 249.5 L 273.5 250 Q 272.5 249.5 273.5 249 Z "/><path fill="rgb(72,15,188)" d="M 382 249 L 382.5 249 L 415.5 249 L 417 250.5 L 417 288.5 L 416.5 289 L 416 288.5 L 416 250.5 L 416 250 L 415.5 250 L 383.5 250 L 383 250 L 383 250.5 L 383 288.5 Q 382.5 289.5 382 288.5 L 382 249.5 L 382 249 Z "/><path fill="rgb(72,15,188)" d="M 183.5 250 Q 185.5 249.5 186 250.5 Q 185.5 251.5 183.5 251 Q 182.5 250.5 183.5 250 Z "/><path fill="rgb(72,15,188)" d="M 276.5 250 L 278 250.5 L 276.5 251 Q 275.5 250.5 276.5 250 Z "/><path fill="rgb(72,15,188)" d="M 188.5 251 L 226.5 251 L 228 252.5 L 228 264.5 L 227.5 265 L 227 264.5 L 227 252.5 L 227 252 L 226.5 252 L 188.5 252 Q 187.5 251.5 188.5 251 Z "/><path fill="rgb(72,15,188)" d="M 281.5 251 L 319.5 251 L 320 251.5 L 319.5 252 L 281.5 252 Q 280.5 251.5 281.5 251 Z "/><path fill="rgb(72,15,188)" d="M 85.5 252 L 122 288.5 L 122 289.5 L 86 325.5 L 86 326.5 L 84.5 329 L 84 327.5 Q 85.25 327.25 85 325.5 L 121 289.5 L 121 288.5 L 85 252.5 L 85.5 252 Z "/><path fill="rgb(72,15,188)" d="M 252.5 253 L 253 253.5 L 253 267.5 Q 252.5 268.5 252 267.5 L 252 253.5 L 252.5 253 Z "/><path fill="rgb(72,15,188)" d="M 319.5 266 L 320 267.5 L 316.5 271 L 314.5 271 Q 313.5 270.5 314.5 270 L 316.5 270 L 319 267.5 L 319.5 266 Z "/><path fill="rgb(72,15,188)" d="M 226.5 267 L 227 267.5 L 223.5 271 L 222 270.5 L 223.5 270 L 226.5 267 Z "/><path fill="rgb(72,15,188)" d="M 176.5 269 L 187.5 269 L 188 269.5 L 187.5 270 L 176.5 270 Q 175.5 269.5 176.5 269 Z "/><path fill="rgb(72,15,188)" d="M 261.5 269 L 262 269.5 L 262 286.5 L 263 287.5 L 262.5 288 L 261 286.5 L 261 269.5 L 261.5 269 Z "/><path fill="rgb(72,15,188)" d="M 269.5 269 L 280.5 269 L 281 269.5 L 280.5 270 L 269.5 270 Q 268.5 269.5 269.5 269 Z "/><path fill="rgb(72,15,188)" d="M 197.5 270 L 213.5 270 L 214 270.5 L 213.5 271 L 197.5 271 Q 196.5 270.5 197.5 270 Z "/><path fill="rgb(72,15,188)" d="M 289.5 270 L 305.5 270 L 306 270.5 L 305.5 271 L 289.5 271 Q 288.5 270.5 289.5 270 Z "/><path fill="rgb(72,15,188)" d="M 344.5 270 Q 345.5 270.5 345 272.5 Q 344.5 273.5 344 272.5 Q 343.5 270.5 344.5 270 Z "/><path fill="rgb(72,15,188)" d="M 251.5 271 Q 252.5 271.5 252 273.5 Q 251.5 274.5 251 273.5 Q 250.5 271.5 251.5 271 Z "/><path fill="rgb(72,15,188)" d="M 343.5 275 L 344 276.5 Q 343.5 277.5 343 276.5 L 343.5 275 Z "/><path fill="rgb(72,15,188)" d="M 250.5 276 Q 251.5 276.5 250.5 277 Q 249.5 276.5 250.5 276 Z "/><path fill="rgb(72,15,188)" d="M 249.5 278 L 250 279.5 L 248.5 281 L 248 280.5 L 249.5 278 Z "/><path fill="rgb(72,15,188)" d="M 342.5 278 Q 343.5 278.5 342.5 279 Q 341.5 278.5 342.5 278 Z "/><path fill="rgb(72,15,188)" d="M 341.5 280 Q 342.5 280.5 341.5 281 Q 340.5 280.5 341.5 280 Z "/><path fill="rgb(72,15,188)" d="M 247.5 282 L 248 282.5 L 244.5 286 L 244 285.5 L 247.5 282 Z "/><path fill="rgb(72,15,188)" d="M 340.5 282 L 341 282.5 L 337.5 286 L 337 285.5 L 340.5 282 Z "/><path fill="rgb(72,15,188)" d="M 149.5 284 L 150 285.5 Q 149.5 286.5 149 285.5 L 149.5 284 Z "/><path fill="rgb(72,15,188)" d="M 242.5 286 L 243 286.5 L 241.5 288 L 241 287.5 L 242.5 286 Z "/><path fill="rgb(72,15,188)" d="M 335.5 286 L 336 286.5 L 334.5 288 L 333 287.5 L 335.5 286 Z "/><path fill="rgb(72,15,188)" d="M 169.5 287 Q 170.5 287.5 169.5 288 Q 168.5 287.5 169.5 287 Z "/><path fill="rgb(72,15,188)" d="M 150.5 288 Q 151.5 288.5 151 290.5 Q 150.5 291.5 150 290.5 Q 149.5 288.5 150.5 288 Z "/><path fill="rgb(72,15,188)" d="M 175.5 288 L 182.5 288 L 183 288.5 L 182.5 289 L 175.5 289 Q 174.5 288.5 175.5 288 Z "/><path fill="rgb(72,15,188)" d="M 238.5 288 L 240 288.5 L 238.5 289 Q 237.5 288.5 238.5 288 Z "/><path fill="rgb(72,15,188)" d="M 268.5 288 L 275.5 288 L 276 288.5 L 275.5 289 L 268.5 289 Q 267.5 288.5 268.5 288 Z "/><path fill="rgb(72,15,188)" d="M 331.5 288 Q 332.5 288.5 331.5 289 Q 330.5 288.5 331.5 288 Z "/><path fill="rgb(72,15,188)" d="M 191.5 289 L 200.5 289 L 201 289.5 L 200.5 290 L 191.5 290 Q 190.5 289.5 191.5 289 Z "/><path fill="rgb(72,15,188)" d="M 234.5 289 Q 236.5 288.5 237 289.5 Q 236.5 290.5 234.5 290 Q 233.5 289.5 234.5 289 Z "/><path fill="rgb(72,15,188)" d="M 283.5 289 L 293.5 289 L 294 289.5 L 293.5 290 L 283.5 290 Q 282.5 289.5 283.5 289 Z "/><path fill="rgb(72,15,188)" d="M 327.5 289 L 329 289.5 L 327.5 290 Q 326.5 289.5 327.5 289 Z "/><path fill="rgb(72,15,188)" d="M 210.5 290 L 230.5 290 L 231 290.5 L 230.5 291 L 210.5 291 Q 209.5 290.5 210.5 290 Z "/><path fill="rgb(72,15,188)" d="M 304.5 290 L 323.5 290 L 324 290.5 L 323.5 291 L 304.5 291 Q 303.5 290.5 304.5 290 Z "/><path fill="rgb(72,15,188)" d="M 149.5 292 L 150 293.5 Q 149.5 294.5 149 293.5 L 149.5 292 Z "/><path fill="rgb(72,15,188)" d="M 148.5 295 L 149 295.5 L 147.5 297 L 147 296.5 L 148.5 295 Z "/><path fill="rgb(72,15,188)" d="M 154.5 320 L 268.5 320 L 269 320.5 L 268.5 321 L 154.5 321 Q 153.5 320.5 154.5 320 Z "/><path fill="rgb(72,15,188)" d="M 151.5 321 Q 152.5 321.5 151.5 322 Q 150.5 321.5 151.5 321 Z "/><path fill="rgb(72,15,188)" d="M 271.5 321 L 273 321.5 L 271.5 322 Q 270.5 321.5 271.5 321 Z "/><path fill="rgb(72,15,188)" d="M 149.5 322 Q 150.5 322.5 149.5 323 Q 148.5 322.5 149.5 322 Z "/><path fill="rgb(72,15,188)" d="M 274.5 322 L 278 325.5 L 277.5 326 L 274 322.5 L 274.5 322 Z "/><path fill="rgb(72,15,188)" d="M 147.5 323 L 148 323.5 L 146.5 325 L 146 324.5 L 147.5 323 Z "/><path fill="rgb(72,15,188)" d="M 120.5 324 L 121 324.5 L 116.5 329 L 116 328.5 L 120.5 324 Z "/><path fill="rgb(72,15,188)" d="M 145.5 326 Q 146.5 326.5 145.5 327 Q 144.5 326.5 145.5 326 Z "/><path fill="rgb(72,15,188)" d="M 278.5 327 Q 279.5 327.5 278.5 328 Q 277.5 327.5 278.5 327 Z "/><path fill="rgb(72,15,188)" d="M 144.5 328 Q 145.5 328.5 144.5 329 Q 143.5 328.5 144.5 328 Z "/><path fill="rgb(72,15,188)" d="M 279.5 329 Q 280.5 329.5 280 331.5 Q 279.5 332.5 279 331.5 Q 278.5 329.5 279.5 329 Z "/><path fill="rgb(72,15,188)" d="M 113.5 331 Q 114.5 331.5 113.5 332 Q 112.5 331.5 113.5 331 Z "/><path fill="rgb(72,15,188)" d="M 143.5 332 Q 144.5 332.5 143.5 333 Q 142.5 332.5 143.5 332 Z "/><path fill="rgb(72,15,188)" d="M 279.5 333 Q 280.5 333.5 280 335.5 Q 279.5 336.5 279 335.5 Q 278.5 333.5 279.5 333 Z "/><path fill="rgb(72,15,188)" d="M 84.5 334 L 85 335.5 Q 84.5 336.5 84 335.5 L 84.5 334 Z "/><path fill="rgb(72,15,188)" d="M 110.5 334 L 111 334.5 L 104.5 341 L 104 340.5 L 110.5 334 Z "/><path fill="rgb(72,15,188)" d="M 144.5 336 L 146 338.5 L 146 339.5 L 148 341.5 L 147.5 342 L 145 339.5 Q 145.25 337.75 144 337.5 L 144.5 336 Z "/><path fill="rgb(72,15,188)" d="M 85.5 337 Q 86.5 337.5 85.5 338 Q 84.5 337.5 85.5 337 Z "/><path fill="rgb(72,15,188)" d="M 278.5 337 L 279 338.5 L 277.5 340 L 277 339.5 L 278.5 337 Z "/><path fill="rgb(72,15,188)" d="M 86.5 339 L 89 341.5 L 88.5 342 L 86 339.5 L 86.5 339 Z "/><path fill="rgb(72,15,188)" d="M 102.5 341 L 103 341.5 L 101.5 343 L 101 342.5 L 102.5 341 Z "/><path fill="rgb(72,15,188)" d="M 275.5 341 L 276 341.5 L 274.5 343 L 274 342.5 L 275.5 341 Z "/><path fill="rgb(72,15,188)" d="M 90.5 342 Q 91.5 342.5 90.5 343 Q 89.5 342.5 90.5 342 Z "/><path fill="rgb(72,15,188)" d="M 149.5 342 Q 150.5 342.5 149.5 343 Q 148.5 342.5 149.5 342 Z "/><path fill="rgb(72,15,188)" d="M 93.5 343 L 98.5 343 L 99 343.5 L 98.5 344 L 93.5 344 Q 92.5 343.5 93.5 343 Z "/><path fill="rgb(72,15,188)" d="M 151.5 343 Q 152.5 343.5 151.5 344 Q 150.5 343.5 151.5 343 Z "/><path fill="rgb(72,15,188)" d="M 271.5 343 L 273 343.5 L 271.5 344 Q 270.5 343.5 271.5 343 Z "/><path fill="rgb(72,15,188)" d="M 154.5 344 L 268.5 344 L 269 344.5 L 268.5 345 L 154.5 345 Q 153.5 344.5 154.5 344 Z "/><path fill="rgb(72,15,188)" d="M 0.5 429 L 1 430.5 Q 0.5 431.5 0 430.5 L 0.5 429 Z "/><path fill="rgb(72,15,188)" d="M 499.5 429 L 500 430.5 Q 499.5 431.5 499 430.5 L 499.5 429 Z "/><path fill="rgb(72,15,188)" d="M 1.5 432 L 3 433.5 L 2.5 434 L 1 432.5 L 1.5 432 Z "/><path fill="rgb(72,15,188)" d="M 498.5 432 L 499 432.5 L 497.5 434 L 497 433.5 L 498.5 432 Z "/><path fill="rgb(72,15,188)" d="M 495.5 435 L 496 435.5 L 494.5 437 L 494 436.5 L 495.5 435 Z "/><path fill="rgb(72,15,188)" d="M 5.5 436 Q 6.5 436.5 5.5 437 Q 4.5 436.5 5.5 436 Z "/><path fill="rgb(72,15,188)" d="M 7.5 437 Q 8.5 437.5 7.5 438 Q 6.5 437.5 7.5 437 Z "/><path fill="rgb(72,15,188)" d="M 492.5 437 Q 493.5 437.5 492.5 438 Q 491.5 437.5 492.5 437 Z "/></svg>